PathFileType	4	(X/Y/Z)	C:/Users/rsk02/Documents/GitHub/TechForParalysis/Code/Model/04122019 - Marker Volunteer01/Rosti Data/New Session 109.trc	
DataRate	CameraRate	NumFrames	NumMarkers	Units	OrigDataRate	OrigDataStartFrame	OrigNumFrames	
100.00	100.00	11	14	mm	100.00	714	1141	
Frame#	Time	C7			PX			T8			IJ			SC			AC			AI			TS			AA			GH			LE			ME			US			RS			
		X1	Y1	Z1	X2	Y2	Z2	X3	Y3	Z3	X4	Y4	Z4	X5	Y5	Z5	X6	Y6	Z6	X7	Y7	Z7	X8	Y8	Z8	X9	Y9	Z9	X10	Y10	Z10	X11	Y11	Z11	X12	Y12	Z12	X13	Y13	Z13	X14	Y14	Z14	

714	7.130	642.41791	-16.90342	1550.71948	436.20569	-15.95837	1279.56274	738.50073	-31.08509	1343.20935	489.37201	-18.01582	1427.26184	493.36795	6.96071	1436.56628	594.36865	128.61685	1503.79578	705.30090	36.15594	1483.50659	747.25946	36.39366	1362.59387	687.90363	144.76877	1484.10376	653.63605	168.69398	1490.16113	796.27576	247.74339	1266.69434	798.25153	160.85051	1209.29492	542.52197	217.27271	1254.60986	555.36047	203.15906	1332.52905 
715	7.140	642.47205	-17.06573	1550.67358	436.23462	-15.79548	1279.57104	738.50549	-31.22983	1343.17834	489.37317	-17.87585	1427.33484	493.39893	7.02796	1436.59460	594.56738	128.50769	1503.87610	705.43378	36.01438	1483.56860	747.23395	36.27926	1362.57593	688.04553	144.65173	1484.07080	653.79828	168.56578	1490.15039	796.33612	247.74429	1266.93530	798.26923	161.05205	1209.42188	542.59564	217.44556	1254.63428	555.35919	203.13429	1332.51038 
716	7.150	642.53406	-17.18629	1550.62561	436.26083	-15.67245	1279.58044	738.51312	-31.32584	1343.15674	489.36133	-17.76756	1427.40503	493.42477	7.06027	1436.63391	594.72308	128.38875	1503.94971	705.54498	35.94374	1483.60437	747.18292	36.22846	1362.54883	688.14008	144.58479	1484.01416	653.92322	168.44756	1490.13013	796.16058	247.89999	1266.99451	798.09387	161.33768	1209.38818	542.42181	217.63464	1254.59509	555.14441	203.12383	1332.43335 
717	7.160	642.58490	-17.26919	1550.58252	436.27725	-15.59347	1279.58984	738.52625	-31.37654	1343.14807	489.34354	-17.70745	1427.46436	493.43616	7.08110	1436.68799	594.83160	128.27534	1504.00122	705.63593	35.92856	1483.60388	747.12219	36.24377	1362.50940	688.19299	144.55823	1483.92993	654.00610	168.34871	1490.09863	795.75348	248.19838	1266.88281	797.73389	161.72821	1209.19873	542.01978	217.82564	1254.48853	554.74103	203.14267	1332.29565 
718	7.170	642.61853	-17.32856	1550.54675	436.28241	-15.56353	1279.59546	738.54358	-31.38382	1343.14661	489.32260	-17.69333	1427.50952	493.43503	7.07410	1436.73999	594.89777	128.17575	1504.01416	705.71240	35.95605	1483.57056	747.07880	36.31775	1362.45422	688.21289	144.57343	1483.81567	654.03918	168.28374	1490.05042	795.12817	248.62311	1266.62256	797.16040	162.27544	1208.85852	541.40686	217.99547	1254.31738	554.17157	203.19580	1332.08472 
719	7.180	642.64465	-17.38073	1550.51404	436.27979	-15.58497	1279.59204	738.55682	-31.34825	1343.13831	489.30246	-17.72046	1427.53748	493.43784	7.01417	1436.77380	594.92639	128.09312	1503.99988	705.78247	36.01674	1483.49792	747.07935	36.43937	1362.37976	688.20477	144.63863	1483.66724	654.01904	168.26747	1489.97620	794.30804	249.16168	1266.23938	796.37579	162.98167	1208.37915	540.60168	218.12804	1254.07947	553.44617	203.27682	1331.78552 
720	7.190	642.67804	-17.43439	1550.47534	436.27463	-15.65477	1279.57678	738.55389	-31.27104	1343.10742	489.29074	-17.79357	1427.54126	493.45673	6.89639	1436.77478	594.92529	128.02820	1503.97437	705.85089	36.11398	1483.38318	747.12964	36.59975	1362.28467	688.16638	144.76062	1483.48022	653.94580	168.30727	1489.86316	793.31879	249.79959	1265.75061	795.42828	163.78192	1207.78076	539.62146	218.23366	1253.76563	552.56329	203.37392	1331.39636 
721	7.200	642.73163	-17.48655	1550.42139	436.27148	-15.76480	1279.55029	738.52533	-31.15372	1343.04395	489.29120	-17.90904	1427.51978	493.49579	6.74261	1436.74011	594.88885	127.97878	1503.94226	705.91766	36.26415	1483.24646	747.19250	36.79482	1362.16504	688.09161	144.94106	1483.25745	653.81268	168.41226	1489.70679	792.17303	250.51903	1265.16284	794.36841	164.60110	1207.08972	538.47888	218.34743	1253.36694	551.52405	203.47115	1330.94116 
722	7.210	642.81030	-17.52908	1550.34692	436.27310	-15.90398	1279.51587	738.47125	-30.99849	1342.94873	489.30438	-18.06013	1427.47913	493.54053	6.58533	1436.68384	594.80682	127.94038	1503.90320	705.98346	36.46798	1483.11316	747.19781	37.02251	1362.01587	687.96722	145.17921	1483.01270	653.60553	168.58319	1489.51807	790.87280	251.29329	1264.48547	793.22070	165.39638	1206.33313	537.18811	218.49556	1252.89270	550.33948	203.54675	1330.46021 
723	7.220	642.90686	-17.55428	1550.25757	436.28027	-16.06093	1279.47839	738.40576	-30.80989	1342.83789	489.32635	-18.23531	1427.43506	493.55103	6.44705	1436.63989	594.67163	127.90720	1503.86316	706.04340	36.70854	1482.99353	747.09137	37.28579	1361.83618	687.77338	145.47038	1482.76099	653.31580	168.79567	1489.31726	789.41949	252.08794	1263.74121	791.98700	166.16196	1205.53418	535.76880	218.66216	1252.38196	549.02014	203.58127	1329.98242 
724	7.230	643.00800	-17.55139	1550.17065	436.29266	-16.22668	1279.44165	738.35364	-30.59192	1342.73718	489.34708	-18.41570	1427.40381	493.53497	6.31090	1436.62476	594.47607	127.87457	1503.83289	706.08826	36.96959	1482.88757	746.86664	37.59303	1361.63293	687.49792	145.80658	1482.51257	652.94965	169.02287	1489.12195	787.81323	252.88422	1262.95508	790.65985	166.91565	1204.70911	534.23511	218.79709	1251.87817	547.56915	203.56686	1329.50403 
